<svg width="293" height="255" viewBox="0 0 293 255" fill="none" xmlns="http://www.w3.org/2000/svg">
<g clip-path="url(#clip0_1040_418)">
<path d="M293 251.839L83.2568 255L0 240.248H129.975L293 251.839Z" fill="#E6E6E6"/>
<path d="M241.53 67.0868C260.061 67.0868 275.082 52.0689 275.082 33.5434C275.082 15.0179 260.061 0 241.53 0C223 0 207.979 15.0179 207.979 33.5434C207.979 52.0689 223 67.0868 241.53 67.0868Z" fill="#FF6584"/>
<path d="M59.3545 242.001C59.3545 242.001 59.8453 231.72 69.9063 232.915L59.3545 242.001Z" fill="#3F3D56"/>
<path d="M56.5118 232.218C59.2928 232.218 61.5472 229.964 61.5472 227.183C61.5472 224.403 59.2928 222.149 56.5118 222.149C53.7308 222.149 51.4763 224.403 51.4763 227.183C51.4763 229.964 53.7308 232.218 56.5118 232.218Z" fill="#6C63FF"/>
<path d="M57.1138 235.661H55.6924V245.608H57.1138V235.661Z" fill="#3F3D56"/>
<path d="M225.182 243.757C225.182 243.757 225.672 233.476 235.733 234.671L225.182 243.757Z" fill="#3F3D56"/>
<path d="M222.339 233.974C225.12 233.974 227.374 231.72 227.374 228.939C227.374 226.159 225.12 223.905 222.339 223.905C219.558 223.905 217.303 226.159 217.303 228.939C217.303 231.72 219.558 233.974 222.339 233.974Z" fill="#6C63FF"/>
<path d="M222.941 237.417H221.52V247.364H222.941V237.417Z" fill="#3F3D56"/>
<path d="M249.423 245.514C249.423 245.514 249.914 235.233 259.975 236.428L249.423 245.514Z" fill="#3F3D56"/>
<path d="M246.581 235.73C249.362 235.73 251.616 233.476 251.616 230.696C251.616 227.915 249.362 225.661 246.581 225.661C243.8 225.661 241.545 227.915 241.545 230.696C241.545 233.476 243.8 235.73 246.581 235.73Z" fill="#6C63FF"/>
<path d="M247.183 239.173H245.761V249.12H247.183V239.173Z" fill="#3F3D56"/>
<path d="M99.0547 237.084C99.0547 237.084 99.5455 226.803 109.606 227.998L99.0547 237.084Z" fill="#3F3D56"/>
<path d="M96.2117 227.3C98.9927 227.3 101.247 225.046 101.247 222.266C101.247 219.486 98.9927 217.232 96.2117 217.232C93.4307 217.232 91.1763 219.486 91.1763 222.266C91.1763 225.046 93.4307 227.3 96.2117 227.3Z" fill="#6C63FF"/>
<path d="M96.814 230.743H95.3926V240.69H96.814V230.743Z" fill="#3F3D56"/>
<path d="M24.2214 238.84C24.2214 238.84 24.7122 228.559 34.7732 229.754L24.2214 238.84Z" fill="#3F3D56"/>
<path d="M21.3787 229.056C24.1597 229.056 26.4142 226.802 26.4142 224.022C26.4142 221.242 24.1597 218.988 21.3787 218.988C18.5977 218.988 16.3433 221.242 16.3433 224.022C16.3433 226.802 18.5977 229.056 21.3787 229.056Z" fill="#6C63FF"/>
<path d="M21.9807 232.499H20.5593V242.447H21.9807V232.499Z" fill="#3F3D56"/>
<path d="M145.969 220.975C176.268 220.975 200.831 196.418 200.831 166.127C200.831 135.835 176.268 111.279 145.969 111.279C115.669 111.279 91.1069 135.835 91.1069 166.127C91.1069 196.418 115.669 220.975 145.969 220.975Z" fill="#3F3D56"/>
<path d="M111.43 170.53C112.792 168.899 114.497 167.587 116.422 166.687C118.347 165.787 120.447 165.32 122.572 165.32C124.697 165.32 126.797 165.787 128.722 166.687C130.647 167.587 132.351 168.899 133.714 170.53C136.045 168.304 137.657 165.432 138.341 162.283C139.024 159.134 138.749 155.852 137.55 152.861C136.351 149.87 134.284 147.306 131.614 145.5C128.945 143.694 125.795 142.729 122.572 142.729C119.349 142.729 116.199 143.694 113.53 145.5C110.86 147.306 108.793 149.87 107.594 152.861C106.395 155.852 106.12 159.134 106.803 162.283C107.487 165.432 109.098 168.304 111.43 170.53Z" fill="white"/>
<path d="M154.997 170.53C156.359 168.899 158.063 167.587 159.989 166.687C161.914 165.787 164.013 165.32 166.139 165.32C168.264 165.32 170.364 165.787 172.289 166.687C174.214 167.587 175.918 168.899 177.281 170.53C179.612 168.305 181.224 165.432 181.907 162.283C182.591 159.134 182.316 155.852 181.117 152.861C179.918 149.87 177.851 147.306 175.181 145.5C172.511 143.695 169.362 142.729 166.139 142.729C162.916 142.729 159.766 143.695 157.097 145.5C154.427 147.306 152.359 149.87 151.161 152.861C149.962 155.852 149.686 159.134 150.37 162.283C151.054 165.432 152.665 168.305 154.997 170.53Z" fill="white"/>
<path d="M117.067 158.917C120.133 158.917 122.618 156.433 122.618 153.368C122.618 150.303 120.133 147.819 117.067 147.819C114.002 147.819 111.517 150.303 111.517 153.368C111.517 156.433 114.002 158.917 117.067 158.917Z" fill="#3F3D56"/>
<path d="M160.633 158.917C163.698 158.917 166.183 156.433 166.183 153.368C166.183 150.303 163.698 147.819 160.633 147.819C157.567 147.819 155.082 150.303 155.082 153.368C155.082 156.433 157.567 158.917 160.633 158.917Z" fill="#3F3D56"/>
<path d="M106.436 186.292C110.001 186.292 112.89 183.403 112.89 179.839C112.89 176.275 110.001 173.386 106.436 173.386C102.871 173.386 99.9817 176.275 99.9817 179.839C99.9817 183.403 102.871 186.292 106.436 186.292Z" fill="#FF6584"/>
<path d="M180.661 186.292C184.226 186.292 187.115 183.403 187.115 179.839C187.115 176.275 184.226 173.386 180.661 173.386C177.096 173.386 174.207 176.275 174.207 179.839C174.207 183.403 177.096 186.292 180.661 186.292Z" fill="#FF6584"/>
<path d="M143.548 166.933L138.708 187.905L146.776 179.839L143.548 166.933Z" fill="#FF6584"/>
<path d="M168.421 247.592L162.926 242.981L163.054 247.592H161.347L161.21 242.716L153.79 247.592H150.684L161.155 240.711L160.749 226.263L160.446 215.351L162.149 215.304L162.456 226.263L162.862 240.698L171.075 247.592H168.421Z" fill="#3F3D56"/>
<path d="M142.602 247.592L137.106 242.981L137.234 247.592H135.532L135.396 242.716L127.975 247.592H124.869L135.336 240.711L134.93 226.263L134.628 215.351L136.334 215.304L136.641 226.263L137.042 240.698L145.256 247.592H142.602Z" fill="#3F3D56"/>
<path d="M146.776 107.246C145.27 107.246 143.942 108.415 143.054 110.211C142.272 107.51 140.628 105.633 138.708 105.633C138.577 105.646 138.448 105.667 138.32 105.698C137.582 102.815 135.867 100.793 133.867 100.793C131.193 100.793 129.026 104.404 129.026 108.859C129.026 113.314 131.193 116.925 133.867 116.925C133.997 116.912 134.127 116.89 134.254 116.86C134.992 119.743 136.708 121.765 138.708 121.765C140.213 121.765 141.541 120.595 142.429 118.8C143.211 121.5 144.855 123.378 146.776 123.378C149.449 123.378 151.616 119.766 151.616 115.312C151.616 110.857 149.449 107.246 146.776 107.246Z" fill="#3F3D56"/>
<path d="M94.4739 186.912C92.3549 186.912 90.2566 186.494 88.299 185.684C86.3413 184.873 84.5625 183.685 83.0641 182.187C81.5658 180.689 80.3772 178.911 79.5663 176.953C78.7554 174.996 78.338 172.898 78.338 170.78V162.714C78.338 158.436 80.0381 154.333 83.0641 151.307C86.0902 148.282 90.1944 146.582 94.4739 146.582V186.912Z" fill="#6C63FF"/>
<path d="M197.464 146.582C199.583 146.582 201.681 147 203.639 147.81C205.596 148.621 207.375 149.809 208.874 151.307C210.372 152.805 211.561 154.584 212.371 156.541C213.182 158.498 213.6 160.596 213.6 162.714V170.78C213.6 172.898 213.182 174.996 212.371 176.953C211.561 178.911 210.372 180.689 208.874 182.187C207.375 183.685 205.596 184.873 203.639 185.684C201.681 186.495 199.583 186.912 197.464 186.912V146.582H197.464Z" fill="#6C63FF"/>
<path d="M205.919 163.982H203.359C203.359 131.521 176.944 105.113 144.476 105.113C112.007 105.113 85.5919 131.521 85.5919 163.982H83.0317C83.0317 130.11 110.595 102.553 144.476 102.553C178.356 102.553 205.919 130.11 205.919 163.982Z" fill="#6C63FF"/>
<path d="M56.6174 114.651L56.6178 114.65L55.4151 114.149L50.3402 112.004L48.5211 111.236L48.3815 111.588L45.938 117.756L52.8149 120.666L52.851 120.699L52.3876 121.791C52.3242 121.891 52.2701 121.997 52.2259 122.106C51.9013 122.926 52.5144 123.741 53.094 123.971C53.6737 124.2 54.4067 123.722 54.7313 122.902C55.0515 122.094 54.7386 121.067 54.1738 120.819L54.1743 120.818L52.9715 120.317L48.857 118.718L51.2079 112.784L50.8595 112.646L48.5077 118.583L47.9989 118.385L50.3599 112.425L50.4221 112.451L55.2585 114.498L55.2946 114.531L54.8312 115.623C54.7678 115.723 54.7136 115.828 54.6695 115.938C54.3449 116.758 54.958 117.573 55.5376 117.802C56.1172 118.032 56.8503 117.554 57.1749 116.734C57.4951 115.926 57.1822 114.899 56.6174 114.651Z" fill="#3F3D56"/>
<path d="M80.4199 129.794C77.9234 128.367 78.423 125.236 78.423 125.236C78.3602 123.201 76.6791 123.489 76.6791 123.489L76.0672 123.629C75.783 123.497 75.47 123.439 75.1574 123.461L74.2267 123.617C76.346 124.115 76.1719 125.887 76.1719 125.887L76.4688 127.96L70.9156 125.72L71.5532 124.217C71.6413 124.078 71.7165 123.932 71.7778 123.779C72.2286 122.641 71.3771 121.509 70.5721 121.19C69.7671 120.872 68.7489 121.536 68.298 122.674C67.8533 123.797 68.288 125.223 69.0724 125.567L69.0718 125.569L70.7423 126.264L70.7547 126.225L80.4199 129.794ZM77.5999 126.152L77.778 128.136C77.1492 127.254 76.8538 126.178 76.9444 125.098C76.9296 124.714 76.8 124.344 76.5724 124.034C76.9223 124.258 77.2035 124.575 77.3848 124.949C77.5661 125.322 77.6405 125.739 77.5999 126.152V126.152Z" fill="#3F3D56"/>
<path d="M38.0598 100.457L38.0605 100.456L36.39 99.7601L29.4081 97.0467L31.1703 95.4794C31.515 95.0199 32.0241 94.7115 32.591 94.6187C33.158 94.5258 33.7389 94.6557 34.2122 94.9812L33.6654 94.1687C33.6654 94.1687 32.6374 92.808 31.1983 94.2476C31.1983 94.2476 29.4178 96.8718 26.6211 96.2029L36.1725 100.245L36.2227 100.29L35.579 101.807C35.4909 101.946 35.4157 102.093 35.3545 102.245C34.9036 103.383 35.7552 104.515 36.5602 104.834C37.3652 105.153 38.3833 104.489 38.8342 103.35C39.2789 102.228 38.8443 100.802 38.0598 100.457Z" fill="#3F3D56"/>
<path d="M63.6204 91.5764L62.9767 93.0936C62.8886 93.2324 62.8134 93.379 62.7522 93.5315C62.3013 94.6697 63.1528 95.8017 63.9578 96.1205C64.7629 96.4393 65.781 95.775 66.2319 94.6369C66.6766 93.5143 66.242 92.0881 65.4575 91.7435L65.4582 91.7421L63.7877 91.0466L58.073 88.8257L61.3382 80.5834L60.8543 80.3918L57.5878 88.6371L56.8812 88.3626L60.1603 80.085L60.2467 80.1216L66.9641 82.9639L67.0142 83.0093L66.3706 84.5266C66.2825 84.6654 66.2073 84.8119 66.146 84.9645C65.6951 86.1026 66.5467 87.2347 67.3517 87.5535C68.1567 87.8722 69.1749 87.208 69.6258 86.0698C70.0705 84.9472 69.6359 83.521 68.8514 83.1764L68.852 83.1751L67.1815 82.4796L60.3547 79.5944L60.3545 79.5943L60.133 79.5007L57.6065 78.4329L54.0188 87.4894L63.5702 91.531L63.6204 91.5764Z" fill="#3F3D56"/>
<path d="M33.3517 45.1947L33.3529 45.1923L30.4772 43.9951L18.4584 39.3241L21.4918 36.626C21.4918 36.626 23.5096 33.8271 26.7283 35.7684L25.787 34.3697C25.787 34.3697 24.0173 32.0274 21.5401 34.5056C21.5401 34.5056 18.4751 39.023 13.6606 37.8715L30.1029 44.8289L30.1892 44.9071L29.0812 47.5189C28.9295 47.7578 28.8001 48.0101 28.6946 48.2727C27.9185 50.232 29.3844 52.1808 30.7702 52.7295C32.1559 53.2783 33.9086 52.1348 34.6848 50.1755C35.4503 48.243 34.7021 45.7879 33.3517 45.1947Z" fill="#3F3D56"/>
<path d="M42.1769 84.4309C36.2082 81.0191 37.4026 73.5323 37.4026 73.5323C37.2524 68.6686 33.2329 69.357 33.2329 69.357L31.77 69.6908C31.0905 69.3755 30.3422 69.2371 29.5948 69.2886L27.3695 69.663C32.4366 70.8532 32.0203 75.091 32.0203 75.091L32.7302 80.046L19.453 74.6912L20.9774 71.0977C21.1881 70.7659 21.3679 70.4154 21.5144 70.0507C22.5924 67.3295 20.5564 64.6227 18.6317 63.8606C16.7069 63.0985 14.2727 64.6867 13.1946 67.4079C12.1313 70.092 13.1705 73.5019 15.0461 74.3258L15.0445 74.329L19.0386 75.9919L19.0683 75.8978L42.1769 84.4309ZM35.4345 75.7246L35.8617 80.4839C33.3549 77.1569 33.8673 73.2043 33.8673 73.2043C33.8319 72.2863 33.5222 71.4001 32.9781 70.6599C35.8577 72.3827 35.4345 75.7246 35.4345 75.7246H35.4345Z" fill="#3F3D56"/>
</g>
<defs>
<clipPath id="clip0_1040_418">
<rect width="293" height="255" fill="white"/>
</clipPath>
</defs>
</svg>
